<svg width="207" height="158" viewBox="0 0 207 158" fill="none" xmlns="http://www.w3.org/2000/svg">
<g clip-path="url(#clip0_5_32)">
<path d="M120.577 27.8536C124.457 27.8536 127.602 24.553 127.602 20.4815C127.602 16.41 124.457 13.1094 120.577 13.1094C116.698 13.1094 113.553 16.41 113.553 20.4815C113.553 24.553 116.698 27.8536 120.577 27.8536Z" fill="#F4F8EC"/>
<path d="M175.069 137.263C185.51 128.917 190.497 114.892 187.375 101.513C187.297 101.181 187.215 100.849 187.129 100.518C185.059 92.5768 179.939 85.029 172.476 82.4915C166.209 80.3608 159.369 81.9992 152.831 81.152C139.998 79.4887 130.048 68.5911 123.047 57.1812C116.046 45.7713 110.666 32.9995 101.363 23.5732C86.0294 8.03565 61.0161 4.6904 42.0044 14.8042C22.9927 24.918 10.8824 47.3564 11.3989 69.7191C11.9154 92.0817 24.5653 113.462 42.9361 124.806C49.6848 128.973 57.4903 131.925 65.2584 130.892C71.9986 129.996 78.123 126.195 84.8315 125.066C95.3788 123.292 105.859 128.297 114.982 134.129C124.104 139.961 132.916 146.874 143.283 149.577C153.349 152.203 165.82 144.657 175.069 137.263Z" fill="#EBF2DB"/>
<path d="M160.067 15.2738C159.838 15.1137 159.607 14.9618 159.378 14.8072C152.762 10.3664 145.67 6.75867 138.25 4.05866L136.529 28.9683H125.622V0.422432C124.935 0.273338 124.243 0.132528 123.551 0V28.9683H110.589C103.453 28.9683 96.6097 25.9934 91.5639 20.698C86.5181 15.4026 83.6834 8.22052 83.6834 0.731695V0.73167C82.9889 0.889047 82.2996 1.05747 81.6103 1.23693V28.9684H71.0528L69.4137 5.21552C61.7881 8.28472 54.5487 12.3209 47.8566 17.2341C47.7408 17.317 47.6251 17.4025 47.512 17.4854C46.9305 17.9133 46.357 18.3496 45.7861 18.7913V113.822H76.9011L76.3513 105.829L73.3258 61.9429H134.253L131.228 105.829L130.678 113.822H161.449V16.2346C160.991 15.9089 160.53 15.5886 160.067 15.2738ZM81.6103 54.6953H72.826L71.2027 31.144H81.6103V54.6953ZM123.551 54.6953H108.797V54.2287C108.797 54.0044 108.755 53.7823 108.673 53.5751C108.592 53.3679 108.472 53.1796 108.32 53.0211C108.169 52.8627 107.99 52.737 107.792 52.6515C107.594 52.5659 107.383 52.522 107.169 52.5224H100.755C100.541 52.5223 100.33 52.5664 100.133 52.6521C99.9354 52.7378 99.7561 52.8635 99.6051 53.0219C99.4542 53.1804 99.3344 53.3685 99.2527 53.5756C99.171 53.7827 99.129 54.0046 99.1291 54.2287V54.6953H83.6834V31.144H123.551V54.6953ZM125.622 54.6953V31.144H136.379L134.756 54.6953H125.622Z" fill="#124559"/>
<path d="M-7.62939e-06 119.907C2.28547 122.749 4.75748 125.42 7.39793 127.9L199.602 128.177C202.243 125.696 204.715 123.026 207 120.184L-7.62939e-06 119.907Z" fill="#405B61"/>
<path d="M130.34 94.3131V117.976C130.34 118.278 130.454 118.567 130.658 118.78C130.861 118.993 131.136 119.113 131.424 119.113H164.836C165.124 119.113 165.399 118.993 165.602 118.78C165.806 118.567 165.92 118.278 165.92 117.976V94.3131C165.919 94.0119 165.805 93.7231 165.602 93.5102C165.399 93.2973 165.123 93.1775 164.836 93.1771H131.424C131.136 93.1775 130.861 93.2973 130.658 93.5102C130.455 93.7231 130.341 94.0119 130.34 94.3131Z" fill="#3F3D56"/>
<path d="M131.124 94.6075V117.684C131.124 117.845 131.185 118 131.294 118.114C131.402 118.227 131.549 118.292 131.703 118.292H164.558C164.712 118.292 164.859 118.227 164.967 118.114C165.076 118 165.137 117.845 165.137 117.684V94.6075C165.137 94.4462 165.076 94.2915 164.968 94.1773C164.859 94.0631 164.712 93.9988 164.558 93.9985H131.703C131.549 93.9988 131.402 94.0631 131.293 94.1773C131.185 94.2915 131.124 94.4462 131.124 94.6075Z" fill="#598392"/>
<path d="M129.641 122.591C129.702 122.671 129.78 122.736 129.869 122.781C129.957 122.825 130.054 122.848 130.152 122.848H165.93C166.028 122.847 166.124 122.824 166.212 122.78C166.301 122.736 166.379 122.672 166.44 122.592C166.502 122.512 166.546 122.419 166.569 122.319C166.592 122.219 166.593 122.115 166.573 122.015L166.018 119.246C165.995 119.134 165.945 119.028 165.874 118.941C165.802 118.853 165.711 118.786 165.608 118.745C165.534 118.714 165.454 118.698 165.374 118.698H130.706C130.626 118.698 130.546 118.714 130.472 118.745C130.369 118.786 130.278 118.853 130.206 118.941C130.135 119.028 130.085 119.134 130.062 119.246L129.507 122.015C129.487 122.115 129.489 122.219 129.512 122.319C129.535 122.418 129.579 122.511 129.641 122.591Z" fill="#2F2E41"/>
<path d="M164.147 119.891H164.992C165.063 119.891 165.12 119.83 165.12 119.756V119.332C165.12 119.257 165.063 119.197 164.992 119.197H164.147C164.076 119.197 164.018 119.257 164.018 119.332V119.756C164.018 119.83 164.076 119.891 164.147 119.891Z" fill="#3F3D56"/>
<path d="M161.943 119.891H162.788C162.859 119.891 162.916 119.83 162.916 119.756V119.332C162.916 119.257 162.859 119.197 162.788 119.197H161.943C161.872 119.197 161.814 119.257 161.814 119.332V119.756C161.814 119.83 161.872 119.891 161.943 119.891Z" fill="#3F3D56"/>
<path d="M159.739 119.891H160.584C160.655 119.891 160.713 119.83 160.713 119.756V119.332C160.713 119.257 160.655 119.197 160.584 119.197H159.739C159.668 119.197 159.611 119.257 159.611 119.332V119.756C159.611 119.83 159.668 119.891 159.739 119.891Z" fill="#3F3D56"/>
<path d="M157.535 119.891H158.38C158.451 119.891 158.509 119.83 158.509 119.756V119.332C158.509 119.257 158.451 119.197 158.38 119.197H157.535C157.464 119.197 157.407 119.257 157.407 119.332V119.756C157.407 119.83 157.464 119.891 157.535 119.891Z" fill="#3F3D56"/>
<path d="M155.331 119.891H156.176C156.247 119.891 156.305 119.83 156.305 119.756V119.332C156.305 119.257 156.247 119.197 156.176 119.197H155.331C155.26 119.197 155.203 119.257 155.203 119.332V119.756C155.203 119.83 155.26 119.891 155.331 119.891Z" fill="#3F3D56"/>
<path d="M153.127 119.891H153.972C154.043 119.891 154.101 119.83 154.101 119.756V119.332C154.101 119.257 154.043 119.197 153.972 119.197H153.127C153.057 119.197 152.999 119.257 152.999 119.332V119.756C152.999 119.83 153.057 119.891 153.127 119.891Z" fill="#3F3D56"/>
<path d="M150.924 119.891H151.769C151.84 119.891 151.897 119.83 151.897 119.756V119.332C151.897 119.257 151.84 119.197 151.769 119.197H150.924C150.853 119.197 150.795 119.257 150.795 119.332V119.756C150.795 119.83 150.853 119.891 150.924 119.891Z" fill="#3F3D56"/>
<path d="M148.72 119.891H149.565C149.636 119.891 149.693 119.83 149.693 119.756V119.332C149.693 119.257 149.636 119.197 149.565 119.197H148.72C148.649 119.197 148.591 119.257 148.591 119.332V119.756C148.591 119.83 148.649 119.891 148.72 119.891Z" fill="#3F3D56"/>
<path d="M146.516 119.891H147.361C147.432 119.891 147.489 119.83 147.489 119.756V119.332C147.489 119.257 147.432 119.197 147.361 119.197H146.516C146.445 119.197 146.387 119.257 146.387 119.332V119.756C146.387 119.83 146.445 119.891 146.516 119.891Z" fill="#3F3D56"/>
<path d="M144.312 119.891H145.157C145.228 119.891 145.286 119.83 145.286 119.756V119.332C145.286 119.257 145.228 119.197 145.157 119.197H144.312C144.241 119.197 144.184 119.257 144.184 119.332V119.756C144.184 119.83 144.241 119.891 144.312 119.891Z" fill="#3F3D56"/>
<path d="M142.108 119.891H142.953C143.024 119.891 143.082 119.83 143.082 119.756V119.332C143.082 119.257 143.024 119.197 142.953 119.197H142.108C142.037 119.197 141.98 119.257 141.98 119.332V119.756C141.98 119.83 142.037 119.891 142.108 119.891Z" fill="#3F3D56"/>
<path d="M139.904 119.891H140.749C140.82 119.891 140.878 119.83 140.878 119.756V119.332C140.878 119.257 140.82 119.197 140.749 119.197H139.904C139.833 119.197 139.776 119.257 139.776 119.332V119.756C139.776 119.83 139.833 119.891 139.904 119.891Z" fill="#3F3D56"/>
<path d="M137.7 119.891H138.546C138.616 119.891 138.674 119.83 138.674 119.756V119.332C138.674 119.257 138.616 119.197 138.546 119.197H137.7C137.63 119.197 137.572 119.257 137.572 119.332V119.756C137.572 119.83 137.63 119.891 137.7 119.891Z" fill="#3F3D56"/>
<path d="M135.497 119.891H136.342C136.413 119.891 136.47 119.83 136.47 119.756V119.332C136.47 119.257 136.413 119.197 136.342 119.197H135.497C135.426 119.197 135.368 119.257 135.368 119.332V119.756C135.368 119.83 135.426 119.891 135.497 119.891Z" fill="#3F3D56"/>
<path d="M133.293 119.891H134.138C134.209 119.891 134.266 119.83 134.266 119.756V119.332C134.266 119.257 134.209 119.197 134.138 119.197H133.293C133.222 119.197 133.164 119.257 133.164 119.332V119.756C133.164 119.83 133.222 119.891 133.293 119.891Z" fill="#3F3D56"/>
<path d="M131.089 119.891H131.934C132.005 119.891 132.062 119.83 132.062 119.756V119.332C132.062 119.257 132.005 119.197 131.934 119.197H131.089C131.018 119.197 130.96 119.257 130.96 119.332V119.756C130.96 119.83 131.018 119.891 131.089 119.891Z" fill="#3F3D56"/>
<path d="M164.173 121.047H165.018C165.089 121.047 165.146 120.987 165.146 120.912V120.488C165.146 120.414 165.089 120.353 165.018 120.353H164.173C164.102 120.353 164.044 120.414 164.044 120.488V120.912C164.044 120.987 164.102 121.047 164.173 121.047Z" fill="#3F3D56"/>
<path d="M161.969 121.047H162.814C162.885 121.047 162.942 120.987 162.942 120.912V120.488C162.942 120.414 162.885 120.353 162.814 120.353H161.969C161.898 120.353 161.84 120.414 161.84 120.488V120.912C161.84 120.987 161.898 121.047 161.969 121.047Z" fill="#3F3D56"/>
<path d="M159.765 121.047H160.61C160.681 121.047 160.739 120.987 160.739 120.912V120.488C160.739 120.414 160.681 120.353 160.61 120.353H159.765C159.694 120.353 159.637 120.414 159.637 120.488V120.912C159.637 120.987 159.694 121.047 159.765 121.047Z" fill="#3F3D56"/>
<path d="M157.561 121.047H158.406C158.477 121.047 158.535 120.987 158.535 120.912V120.488C158.535 120.414 158.477 120.353 158.406 120.353H157.561C157.49 120.353 157.433 120.414 157.433 120.488V120.912C157.433 120.987 157.49 121.047 157.561 121.047Z" fill="#3F3D56"/>
<path d="M155.357 121.047H156.202C156.273 121.047 156.331 120.987 156.331 120.912V120.488C156.331 120.414 156.273 120.353 156.202 120.353H155.357C155.286 120.353 155.229 120.414 155.229 120.488V120.912C155.229 120.987 155.286 121.047 155.357 121.047Z" fill="#3F3D56"/>
<path d="M153.153 121.047H153.999C154.069 121.047 154.127 120.987 154.127 120.912V120.488C154.127 120.414 154.069 120.353 153.999 120.353H153.153C153.083 120.353 153.025 120.414 153.025 120.488V120.912C153.025 120.987 153.083 121.047 153.153 121.047Z" fill="#3F3D56"/>
<path d="M150.95 121.047H151.795C151.866 121.047 151.923 120.987 151.923 120.912V120.488C151.923 120.414 151.866 120.353 151.795 120.353H150.95C150.879 120.353 150.821 120.414 150.821 120.488V120.912C150.821 120.987 150.879 121.047 150.95 121.047Z" fill="#3F3D56"/>
<path d="M148.746 121.047H149.591C149.662 121.047 149.719 120.987 149.719 120.912V120.488C149.719 120.414 149.662 120.353 149.591 120.353H148.746C148.675 120.353 148.617 120.414 148.617 120.488V120.912C148.617 120.987 148.675 121.047 148.746 121.047Z" fill="#3F3D56"/>
<path d="M146.542 121.047H147.387C147.458 121.047 147.515 120.987 147.515 120.912V120.488C147.515 120.414 147.458 120.353 147.387 120.353H146.542C146.471 120.353 146.414 120.414 146.414 120.488V120.912C146.414 120.987 146.471 121.047 146.542 121.047Z" fill="#3F3D56"/>
<path d="M144.338 121.047H145.183C145.254 121.047 145.312 120.987 145.312 120.912V120.488C145.312 120.414 145.254 120.353 145.183 120.353H144.338C144.267 120.353 144.21 120.414 144.21 120.488V120.912C144.21 120.987 144.267 121.047 144.338 121.047Z" fill="#3F3D56"/>
<path d="M142.134 121.047H142.979C143.05 121.047 143.108 120.987 143.108 120.912V120.488C143.108 120.414 143.05 120.353 142.979 120.353H142.134C142.063 120.353 142.006 120.414 142.006 120.488V120.912C142.006 120.987 142.063 121.047 142.134 121.047Z" fill="#3F3D56"/>
<path d="M139.93 121.047H140.775C140.846 121.047 140.904 120.987 140.904 120.912V120.488C140.904 120.414 140.846 120.353 140.775 120.353H139.93C139.859 120.353 139.802 120.414 139.802 120.488V120.912C139.802 120.987 139.859 121.047 139.93 121.047Z" fill="#3F3D56"/>
<path d="M137.727 121.047H138.572C138.643 121.047 138.7 120.987 138.7 120.912V120.488C138.7 120.414 138.643 120.353 138.572 120.353H137.727C137.656 120.353 137.598 120.414 137.598 120.488V120.912C137.598 120.987 137.656 121.047 137.727 121.047Z" fill="#3F3D56"/>
<path d="M135.523 121.047H136.368C136.439 121.047 136.496 120.987 136.496 120.912V120.488C136.496 120.414 136.439 120.353 136.368 120.353H135.523C135.452 120.353 135.394 120.414 135.394 120.488V120.912C135.394 120.987 135.452 121.047 135.523 121.047Z" fill="#3F3D56"/>
<path d="M133.319 121.047H134.164C134.235 121.047 134.292 120.987 134.292 120.912V120.488C134.292 120.414 134.235 120.353 134.164 120.353H133.319C133.248 120.353 133.19 120.414 133.19 120.488V120.912C133.19 120.987 133.248 121.047 133.319 121.047Z" fill="#3F3D56"/>
<path d="M131.115 121.047H131.96C132.031 121.047 132.088 120.987 132.088 120.912V120.488C132.088 120.414 132.031 120.353 131.96 120.353H131.115C131.044 120.353 130.987 120.414 130.987 120.488V120.912C130.987 120.987 131.044 121.047 131.115 121.047Z" fill="#3F3D56"/>
<path d="M145.881 122.435H154.439C154.51 122.435 154.568 122.375 154.568 122.3V121.876C154.568 121.801 154.51 121.741 154.439 121.741H145.881C145.81 121.741 145.752 121.801 145.752 121.876V122.3C145.752 122.375 145.81 122.435 145.881 122.435Z" fill="#3F3D56"/>
<path d="M136.813 99.0471H136.065C135.838 99.0471 135.654 99.24 135.654 99.4781C135.654 99.7161 135.838 99.9091 136.065 99.9091H136.813C137.04 99.9091 137.224 99.7161 137.224 99.4781C137.224 99.24 137.04 99.0471 136.813 99.0471Z" fill="white"/>
<path d="M145.37 99.0471H144.621C144.395 99.0471 144.211 99.24 144.211 99.4781C144.211 99.7161 144.395 99.9091 144.621 99.9091H145.37C145.596 99.9091 145.78 99.7161 145.78 99.4781C145.78 99.24 145.596 99.0471 145.37 99.0471Z" fill="white"/>
<path d="M147.794 99.0471H147.046C146.819 99.0471 146.635 99.24 146.635 99.4781C146.635 99.7161 146.819 99.9091 147.046 99.9091H147.794C148.021 99.9091 148.205 99.7161 148.205 99.4781C148.205 99.24 148.021 99.0471 147.794 99.0471Z" fill="white"/>
<path d="M143.042 98.9752H138.392C138.166 98.9752 137.982 99.1682 137.982 99.4062C137.982 99.6443 138.166 99.8372 138.392 99.8372H143.042C143.269 99.8372 143.453 99.6443 143.453 99.4062C143.453 99.1682 143.269 98.9752 143.042 98.9752Z" fill="white"/>
<path d="M154.451 98.9752H149.801C149.574 98.9752 149.39 99.1682 149.39 99.4062C149.39 99.6443 149.574 99.8372 149.801 99.8372H154.451C154.677 99.8372 154.861 99.6443 154.861 99.4062C154.861 99.1682 154.677 98.9752 154.451 98.9752Z" fill="white"/>
<path d="M139.095 100.993H138.347C138.12 100.993 137.936 101.186 137.936 101.424C137.936 101.662 138.12 101.855 138.347 101.855H139.095C139.322 101.855 139.506 101.662 139.506 101.424C139.506 101.186 139.322 100.993 139.095 100.993Z" fill="white"/>
<path d="M147.651 100.993H146.903C146.676 100.993 146.492 101.186 146.492 101.424C146.492 101.662 146.676 101.855 146.903 101.855H147.651C147.878 101.855 148.062 101.662 148.062 101.424C148.062 101.186 147.878 100.993 147.651 100.993Z" fill="white"/>
<path d="M150.076 100.993H149.327C149.101 100.993 148.917 101.186 148.917 101.424C148.917 101.662 149.101 101.855 149.327 101.855H150.076C150.302 101.855 150.486 101.662 150.486 101.424C150.486 101.186 150.302 100.993 150.076 100.993Z" fill="white"/>
<path d="M145.324 100.921H140.674C140.447 100.921 140.263 101.114 140.263 101.352C140.263 101.59 140.447 101.783 140.674 101.783H145.324C145.551 101.783 145.735 101.59 145.735 101.352C145.735 101.114 145.551 100.921 145.324 100.921Z" fill="white"/>
<path d="M156.732 100.921H152.083C151.856 100.921 151.672 101.114 151.672 101.352C151.672 101.59 151.856 101.783 152.083 101.783H156.732C156.959 101.783 157.143 101.59 157.143 101.352C157.143 101.114 156.959 100.921 156.732 100.921Z" fill="white"/>
<path d="M141.377 102.938H140.629C140.402 102.938 140.218 103.131 140.218 103.369C140.218 103.607 140.402 103.8 140.629 103.8H141.377C141.603 103.8 141.787 103.607 141.787 103.369C141.787 103.131 141.603 102.938 141.377 102.938Z" fill="white"/>
<path d="M149.933 102.938H149.185C148.958 102.938 148.774 103.131 148.774 103.369C148.774 103.607 148.958 103.8 149.185 103.8H149.933C150.16 103.8 150.344 103.607 150.344 103.369C150.344 103.131 150.16 102.938 149.933 102.938Z" fill="white"/>
<path d="M152.357 102.938H151.609C151.382 102.938 151.198 103.131 151.198 103.369C151.198 103.607 151.382 103.8 151.609 103.8H152.357C152.584 103.8 152.768 103.607 152.768 103.369C152.768 103.131 152.584 102.938 152.357 102.938Z" fill="white"/>
<path d="M147.606 102.866H142.956C142.729 102.866 142.545 103.059 142.545 103.297C142.545 103.535 142.729 103.728 142.956 103.728H147.606C147.832 103.728 148.016 103.535 148.016 103.297C148.016 103.059 147.832 102.866 147.606 102.866Z" fill="white"/>
<path d="M159.014 102.866H154.364C154.137 102.866 153.954 103.059 153.954 103.297C153.954 103.535 154.137 103.728 154.364 103.728H159.014C159.241 103.728 159.425 103.535 159.425 103.297C159.425 103.059 159.241 102.866 159.014 102.866Z" fill="white"/>
<path d="M143.658 104.884H142.91C142.683 104.884 142.499 105.077 142.499 105.315C142.499 105.553 142.683 105.746 142.91 105.746H143.658C143.885 105.746 144.069 105.553 144.069 105.315C144.069 105.077 143.885 104.884 143.658 104.884Z" fill="white"/>
<path d="M152.215 104.884H151.466C151.24 104.884 151.056 105.077 151.056 105.315C151.056 105.553 151.24 105.746 151.466 105.746H152.215C152.441 105.746 152.625 105.553 152.625 105.315C152.625 105.077 152.441 104.884 152.215 104.884Z" fill="white"/>
<path d="M154.639 104.884H153.891C153.664 104.884 153.48 105.077 153.48 105.315C153.48 105.553 153.664 105.746 153.891 105.746H154.639C154.866 105.746 155.05 105.553 155.05 105.315C155.05 105.077 154.866 104.884 154.639 104.884Z" fill="white"/>
<path d="M149.887 104.812H145.238C145.011 104.812 144.827 105.005 144.827 105.243C144.827 105.481 145.011 105.674 145.238 105.674H149.887C150.114 105.674 150.298 105.481 150.298 105.243C150.298 105.005 150.114 104.812 149.887 104.812Z" fill="white"/>
<path d="M145.37 112.62H144.621C144.395 112.62 144.211 112.813 144.211 113.051C144.211 113.289 144.395 113.482 144.621 113.482H145.37C145.596 113.482 145.78 113.289 145.78 113.051C145.78 112.813 145.596 112.62 145.37 112.62Z" fill="white"/>
<path d="M147.794 112.62H147.046C146.819 112.62 146.635 112.813 146.635 113.051C146.635 113.289 146.819 113.482 147.046 113.482H147.794C148.021 113.482 148.205 113.289 148.205 113.051C148.205 112.813 148.021 112.62 147.794 112.62Z" fill="white"/>
<path d="M154.451 112.692H149.801C149.574 112.692 149.39 112.885 149.39 113.123C149.39 113.361 149.574 113.554 149.801 113.554H154.451C154.677 113.554 154.861 113.361 154.861 113.123C154.861 112.885 154.677 112.692 154.451 112.692Z" fill="white"/>
<path d="M136.813 112.62H136.065C135.838 112.62 135.654 112.813 135.654 113.051C135.654 113.289 135.838 113.482 136.065 113.482H136.813C137.04 113.482 137.224 113.289 137.224 113.051C137.224 112.813 137.04 112.62 136.813 112.62Z" fill="white"/>
<path d="M143.042 112.692H138.392C138.166 112.692 137.982 112.885 137.982 113.123C137.982 113.361 138.166 113.554 138.392 113.554H143.042C143.269 113.554 143.453 113.361 143.453 113.123C143.453 112.885 143.269 112.692 143.042 112.692Z" fill="white"/>
<path d="M139.095 110.675H138.347C138.12 110.675 137.936 110.868 137.936 111.106C137.936 111.344 138.12 111.537 138.347 111.537H139.095C139.322 111.537 139.506 111.344 139.506 111.106C139.506 110.868 139.322 110.675 139.095 110.675Z" fill="white"/>
<path d="M147.651 110.675H146.903C146.676 110.675 146.492 110.868 146.492 111.106C146.492 111.344 146.676 111.537 146.903 111.537H147.651C147.878 111.537 148.062 111.344 148.062 111.106C148.062 110.868 147.878 110.675 147.651 110.675Z" fill="white"/>
<path d="M150.076 110.675H149.327C149.101 110.675 148.917 110.868 148.917 111.106C148.917 111.344 149.101 111.537 149.327 111.537H150.076C150.302 111.537 150.486 111.344 150.486 111.106C150.486 110.868 150.302 110.675 150.076 110.675Z" fill="white"/>
<path d="M145.324 110.747H140.674C140.447 110.747 140.263 110.939 140.263 111.178C140.263 111.416 140.447 111.609 140.674 111.609H145.324C145.551 111.609 145.735 111.416 145.735 111.178C145.735 110.939 145.551 110.747 145.324 110.747Z" fill="white"/>
<path d="M141.377 108.729H140.629C140.402 108.729 140.218 108.922 140.218 109.16C140.218 109.398 140.402 109.591 140.629 109.591H141.377C141.603 109.591 141.787 109.398 141.787 109.16C141.787 108.922 141.603 108.729 141.377 108.729Z" fill="white"/>
<path d="M149.933 108.729H149.185C148.958 108.729 148.774 108.922 148.774 109.16C148.774 109.398 148.958 109.591 149.185 109.591H149.933C150.16 109.591 150.344 109.398 150.344 109.16C150.344 108.922 150.16 108.729 149.933 108.729Z" fill="white"/>
<path d="M152.357 108.729H151.609C151.382 108.729 151.198 108.922 151.198 109.16C151.198 109.398 151.382 109.591 151.609 109.591H152.357C152.584 109.591 152.768 109.398 152.768 109.16C152.768 108.922 152.584 108.729 152.357 108.729Z" fill="white"/>
<path d="M147.606 108.801H142.956C142.729 108.801 142.545 108.994 142.545 109.232C142.545 109.47 142.729 109.663 142.956 109.663H147.606C147.832 109.663 148.016 109.47 148.016 109.232C148.016 108.994 147.832 108.801 147.606 108.801Z" fill="white"/>
<path d="M143.658 106.784H142.91C142.683 106.784 142.499 106.976 142.499 107.215C142.499 107.453 142.683 107.646 142.91 107.646H143.658C143.885 107.646 144.069 107.453 144.069 107.215C144.069 106.976 143.885 106.784 143.658 106.784Z" fill="white"/>
<path d="M152.215 106.784H151.466C151.24 106.784 151.056 106.976 151.056 107.215C151.056 107.453 151.24 107.646 151.466 107.646H152.215C152.441 107.646 152.625 107.453 152.625 107.215C152.625 106.976 152.441 106.784 152.215 106.784Z" fill="white"/>
<path d="M154.639 106.784H153.891C153.664 106.784 153.48 106.976 153.48 107.215C153.48 107.453 153.664 107.646 153.891 107.646H154.639C154.866 107.646 155.05 107.453 155.05 107.215C155.05 106.976 154.866 106.784 154.639 106.784Z" fill="white"/>
<path d="M149.887 106.855H145.238C145.011 106.855 144.827 107.048 144.827 107.286C144.827 107.524 145.011 107.717 145.238 107.717H149.887C150.114 107.717 150.298 107.524 150.298 107.286C150.298 107.048 150.114 106.855 149.887 106.855Z" fill="white"/>
<path d="M132.836 135.422L129.324 129.595L140.348 120.373L144.898 115.083C145.489 114.395 146.241 113.883 147.08 113.596C147.919 113.31 148.815 113.26 149.679 113.451C150.542 113.641 151.342 114.067 152 114.684C152.658 115.301 153.15 116.089 153.426 116.968C153.836 118.271 153.748 119.69 153.18 120.926C152.612 122.161 151.609 123.117 150.382 123.592L143.187 126.374L132.836 135.422Z" fill="#FFB6B6"/>
<path d="M50.4306 93.1783V121.495H69.3332V93.1783C69.3336 92.9746 69.2716 92.7762 69.1566 92.6122C69.0415 92.4482 68.8794 92.3273 68.694 92.2671C68.6066 92.2368 68.515 92.2219 68.423 92.223H51.3435C51.2238 92.2227 51.1052 92.2472 50.9945 92.2951C50.8838 92.343 50.7832 92.4133 50.6984 92.502C50.6136 92.5908 50.5464 92.6961 50.5004 92.8122C50.4545 92.9282 50.4307 93.0526 50.4306 93.1783ZM57.8075 102.908C57.8125 102.35 58.0272 101.816 58.4051 101.423C58.783 101.03 59.2934 100.81 59.8254 100.81C60.3573 100.81 60.8678 101.03 61.2456 101.423C61.6235 101.816 61.8383 102.35 61.8432 102.908V106.194C61.8405 106.753 61.6267 107.289 61.2486 107.684C60.8705 108.079 60.3588 108.3 59.8254 108.3C59.292 108.3 58.7803 108.079 58.4022 107.684C58.024 107.289 57.8102 106.753 57.8075 106.194V102.908Z" fill="#01161E"/>
<path d="M50.3728 120.589V123.32C50.3732 123.461 50.4267 123.597 50.5218 123.697C50.6169 123.798 50.7458 123.854 50.8805 123.856H68.8834C69.0183 123.855 69.1474 123.798 69.2426 123.698C69.3378 123.597 69.3912 123.462 69.3911 123.32V120.589H50.3728Z" fill="#3F3D56"/>
<path d="M20.6942 50.5154V102.218C20.6947 102.877 20.9443 103.508 21.3883 103.974C21.8322 104.44 22.4341 104.702 23.062 104.703H96.0679C96.6957 104.702 97.2976 104.44 97.7416 103.974C98.1855 103.508 98.4351 102.877 98.4356 102.218V50.5154C98.4341 49.8571 98.1841 49.2262 97.7403 48.761C97.2965 48.2958 96.6951 48.0341 96.0679 48.0333H23.062C22.4347 48.0341 21.8333 48.2958 21.3895 48.761C20.9457 49.2263 20.6957 49.8571 20.6942 50.5154Z" fill="#01161E"/>
<path d="M22.4069 51.1587V101.58C22.4075 101.932 22.541 102.269 22.7782 102.518C23.0154 102.767 23.3369 102.907 23.6723 102.908H95.4602C95.7956 102.907 96.1171 102.767 96.3543 102.518C96.5915 102.269 96.725 101.932 96.7256 101.58V51.1587C96.7256 50.8062 96.5923 50.4682 96.3551 50.2187C96.1178 49.9692 95.796 49.8286 95.4602 49.8279H23.6723C23.3365 49.8286 23.0146 49.9692 22.7774 50.2187C22.5402 50.4682 22.4069 50.8062 22.4069 51.1587Z" fill="#F4F8EC"/>
<path d="M35.7295 123.671C35.8025 123.767 35.8954 123.844 36.0011 123.897C36.1068 123.95 36.2226 123.978 36.3398 123.977H79.049C79.1658 123.977 79.2811 123.949 79.3865 123.897C79.4919 123.844 79.5848 123.767 79.6583 123.672C79.7319 123.577 79.7843 123.465 79.8118 123.346C79.8393 123.227 79.8411 123.103 79.8172 122.983L79.1542 119.678C79.1267 119.543 79.0675 119.418 78.9821 119.313C78.8966 119.209 78.7876 119.128 78.6648 119.079C78.576 119.043 78.4814 119.024 78.386 119.024H37.0002C36.9047 119.024 36.8102 119.043 36.7213 119.079C36.5986 119.128 36.4895 119.209 36.4041 119.313C36.3186 119.418 36.2594 119.543 36.232 119.678L35.569 122.983C35.5454 123.103 35.5476 123.227 35.5753 123.346C35.6031 123.465 35.6557 123.576 35.7295 123.671Z" fill="#01161E"/>
<path d="M93.1304 56.7736H25.9588C25.889 56.772 25.8226 56.7418 25.7737 56.6894C25.7249 56.637 25.6976 56.5666 25.6976 56.4933C25.6976 56.42 25.7249 56.3496 25.7737 56.2972C25.8226 56.2448 25.889 56.2146 25.9588 56.213H93.1304C93.2002 56.2146 93.2667 56.2448 93.3155 56.2972C93.3643 56.3496 93.3917 56.42 93.3917 56.4933C93.3917 56.5666 93.3643 56.637 93.3155 56.6894C93.2667 56.7418 93.2002 56.772 93.1304 56.7736Z" fill="#3F3D56"/>
<path d="M30.5313 54.7816C31.3959 54.7816 32.0967 54.0297 32.0967 53.1021C32.0967 52.1745 31.3959 51.4226 30.5313 51.4226C29.6667 51.4226 28.9658 52.1745 28.9658 53.1021C28.9658 54.0297 29.6667 54.7816 30.5313 54.7816Z" fill="#3F3D56"/>
<path d="M35.9393 54.7816C36.8038 54.7816 37.5047 54.0297 37.5047 53.1021C37.5047 52.1745 36.8038 51.4226 35.9393 51.4226C35.0747 51.4226 34.3738 52.1745 34.3738 53.1021C34.3738 54.0297 35.0747 54.7816 35.9393 54.7816Z" fill="#3F3D56"/>
<path d="M41.3472 54.7816C42.2118 54.7816 42.9127 54.0297 42.9127 53.1021C42.9127 52.1745 42.2118 51.4226 41.3472 51.4226C40.4826 51.4226 39.7818 52.1745 39.7818 53.1021C39.7818 54.0297 40.4826 54.7816 41.3472 54.7816Z" fill="#3F3D56"/>
<path d="M89.8739 51.8379H86.0329C85.957 51.8397 85.8847 51.8727 85.8316 51.9297C85.7786 51.9867 85.7489 52.0633 85.7489 52.143C85.7489 52.2227 85.7786 52.2992 85.8316 52.3562C85.8847 52.4133 85.957 52.4462 86.0329 52.4481H89.8739C89.9503 52.4469 90.0232 52.4143 90.0768 52.3572C90.1305 52.3001 90.1605 52.2232 90.1605 52.143C90.1605 52.0628 90.1305 51.9858 90.0768 51.9288C90.0232 51.8717 89.9503 51.839 89.8739 51.8379Z" fill="#3F3D56"/>
<path d="M89.8739 52.9837H86.0329C85.9569 52.9855 85.8846 53.0184 85.8314 53.0754C85.7783 53.1324 85.7485 53.209 85.7485 53.2888C85.7485 53.3686 85.7783 53.4452 85.8314 53.5022C85.8846 53.5592 85.9569 53.5921 86.0329 53.5939H89.8739C89.9504 53.5929 90.0235 53.5603 90.0772 53.5032C90.131 53.4461 90.1612 53.3691 90.1612 53.2888C90.1612 53.2085 90.131 53.1315 90.0772 53.0743C90.0235 53.0172 89.9504 52.9847 89.8739 52.9837Z" fill="#3F3D56"/>
<path d="M89.8739 54.1295H86.0329C85.957 54.1314 85.8847 54.1643 85.8316 54.2214C85.7786 54.2784 85.7489 54.3549 85.7489 54.4346C85.7489 54.5143 85.7786 54.5909 85.8316 54.6479C85.8847 54.7049 85.957 54.7378 86.0329 54.7397H89.8739C89.9503 54.7386 90.0232 54.7059 90.0768 54.6488C90.1305 54.5917 90.1605 54.5148 90.1605 54.4346C90.1605 54.3544 90.1305 54.2775 90.0768 54.2204C90.0232 54.1633 89.9503 54.1306 89.8739 54.1295Z" fill="#3F3D56"/>
<path d="M182.474 121.788C182.59 122.142 182.81 122.448 183.102 122.663C183.394 122.878 183.744 122.99 184.101 122.984L191.07 122.795C191.43 122.788 191.777 122.659 192.061 122.427C192.345 122.195 192.549 121.873 192.644 121.51L193.63 110.441C193.98 110.608 194.361 110.69 194.745 110.682C195.079 110.673 195.408 110.595 195.713 110.453C196.018 110.311 196.293 110.107 196.523 109.854C196.753 109.6 196.933 109.301 197.053 108.974C197.173 108.647 197.231 108.299 197.222 107.948C197.214 107.598 197.14 107.253 197.004 106.933C196.869 106.613 196.675 106.324 196.433 106.082C196.191 105.841 195.906 105.652 195.595 105.526C195.283 105.4 194.951 105.34 194.618 105.349C194.464 105.348 194.311 105.365 194.161 105.398C193.998 105.213 193.799 105.066 193.578 104.966C193.357 104.866 193.119 104.815 192.879 104.818L182.158 105.108C182.069 105.112 181.98 105.123 181.893 105.143C181.658 105.189 181.435 105.287 181.239 105.431C181.043 105.575 180.879 105.762 180.758 105.978C180.636 106.194 180.56 106.435 180.535 106.685C180.51 106.934 180.536 107.187 180.611 107.425L182.474 121.788ZM193.832 109.69L194.534 107.052C194.614 106.748 194.616 106.426 194.54 106.121C194.574 106.121 194.604 106.104 194.638 106.104C195.119 106.093 195.584 106.283 195.932 106.633C196.28 106.982 196.482 107.462 196.493 107.967C196.504 108.472 196.324 108.961 195.992 109.327C195.661 109.692 195.204 109.905 194.723 109.919C194.412 109.929 194.104 109.85 193.832 109.69Z" fill="#2F2E41"/>
<path d="M181.893 105.143C182.122 106.513 184.69 107.477 187.777 107.309C190.617 107.172 192.938 106.126 193.364 104.886C193.206 104.837 193.043 104.814 192.878 104.818L182.158 105.108C182.069 105.112 181.98 105.123 181.893 105.143Z" fill="#3F3D56"/>
<path d="M188.343 115.706C188.357 115.702 188.371 115.696 188.383 115.687L189.897 114.648C189.915 114.635 189.93 114.618 189.94 114.598C189.951 114.578 189.956 114.555 189.956 114.532C189.956 114.509 189.951 114.487 189.94 114.467C189.93 114.447 189.915 114.429 189.897 114.417L188.323 113.335C188.309 113.325 188.293 113.319 188.276 113.315C188.259 113.312 188.241 113.312 188.224 113.315C188.207 113.319 188.191 113.326 188.177 113.336C188.163 113.347 188.15 113.36 188.141 113.375C188.131 113.39 188.125 113.407 188.122 113.425C188.118 113.443 188.119 113.461 188.122 113.479C188.126 113.497 188.133 113.514 188.142 113.529C188.152 113.544 188.165 113.556 188.179 113.566L189.584 114.532L188.239 115.456C188.213 115.474 188.194 115.501 188.185 115.533C188.176 115.564 188.178 115.598 188.191 115.627C188.203 115.657 188.225 115.682 188.253 115.696C188.281 115.71 188.313 115.714 188.343 115.706H188.343Z" fill="#274156"/>
<path d="M185.953 115.822C185.978 115.815 186.001 115.8 186.018 115.78C186.036 115.759 186.047 115.734 186.051 115.706C186.054 115.679 186.05 115.651 186.038 115.627C186.027 115.602 186.009 115.582 185.986 115.568L184.591 114.729L185.939 113.677C185.953 113.667 185.965 113.653 185.974 113.637C185.982 113.622 185.988 113.605 185.991 113.587C185.993 113.569 185.992 113.551 185.988 113.533C185.984 113.515 185.977 113.499 185.966 113.484C185.956 113.47 185.943 113.458 185.928 113.448C185.913 113.439 185.897 113.433 185.88 113.43C185.863 113.427 185.845 113.428 185.829 113.433C185.812 113.437 185.796 113.445 185.782 113.456L184.273 114.633C184.255 114.646 184.241 114.664 184.232 114.685C184.223 114.706 184.218 114.729 184.22 114.752C184.221 114.775 184.228 114.797 184.239 114.816C184.251 114.836 184.267 114.852 184.286 114.863L185.855 115.807C185.885 115.825 185.92 115.83 185.953 115.822Z" fill="#274156"/>
<path d="M188.193 116.617C188.205 116.614 188.218 116.608 188.229 116.601C188.243 116.592 188.256 116.579 188.267 116.565C188.277 116.55 188.284 116.533 188.288 116.516C188.292 116.498 188.293 116.48 188.29 116.462C188.288 116.444 188.282 116.427 188.273 116.411L186.127 112.709C186.109 112.678 186.08 112.656 186.046 112.647C186.012 112.638 185.976 112.644 185.946 112.663C185.917 112.682 185.895 112.713 185.887 112.749C185.879 112.784 185.884 112.822 185.902 112.853L188.048 116.555C188.063 116.58 188.085 116.6 188.111 116.611C188.137 116.622 188.165 116.624 188.193 116.617Z" fill="#274156"/>
<path d="M67.5705 72.0142H55.9445C55.4703 72.0142 55.0858 72.4177 55.0858 72.9155V74.1075C55.0858 74.6052 55.4703 75.0087 55.9445 75.0087H67.5705C68.0447 75.0087 68.4292 74.6052 68.4292 74.1075V72.9155C68.4292 72.4177 68.0447 72.0142 67.5705 72.0142Z" fill="#598392"/>
<path d="M74.3471 78.0032H49.1679C48.6936 78.0032 48.3091 78.4067 48.3091 78.9044V80.0964C48.3091 80.5942 48.6936 80.9977 49.1679 80.9977H74.3471C74.8214 80.9977 75.2059 80.5942 75.2059 80.0964V78.9044C75.2059 78.4067 74.8214 78.0032 74.3471 78.0032Z" fill="#E6E6E6"/>
<path d="M74.3471 83.9922H49.1679C48.6936 83.9922 48.3091 84.3957 48.3091 84.8934V86.0854C48.3091 86.5832 48.6936 86.9866 49.1679 86.9866H74.3471C74.8214 86.9866 75.2059 86.5832 75.2059 86.0854V84.8934C75.2059 84.3957 74.8214 83.9922 74.3471 83.9922Z" fill="#E6E6E6"/>
<path d="M76.4816 104.047L76.5386 104.236L76.5416 104.242L78.2583 109.719L80.233 116.031L83.9485 127.893L83.9845 129.735V129.742L84.2606 144.564L83.4953 146.573L84.3567 149.868C84.3567 149.868 83.9605 144.888 81.8357 147.748C80.6322 149.373 79.2247 151.036 78.0692 152.595C79.7529 153.31 81.4635 153.957 83.2012 154.535C83.5764 154.661 83.9545 154.781 84.3327 154.901C84.4137 154.926 84.4947 154.951 84.5758 154.976C90.3359 156.764 96.2909 157.769 102.295 157.965C102.607 157.975 102.913 157.981 103.21 157.987C103.315 157.991 103.417 157.994 103.519 157.994C103.855 157.997 104.188 158 104.525 158C105.203 158 105.878 157.99 106.55 157.969C111.526 157.821 116.473 157.119 121.307 155.874C121.274 153.779 121.184 151.332 121.055 148.718C120.995 147.436 119.648 146.047 119.566 144.705C119.509 143.697 120.719 142.749 120.656 141.726C120.248 135.423 119.738 137.843 119.359 133.38C119.32 132.942 119.284 132.523 119.251 132.123C119.008 129.257 118.84 127.465 118.84 127.465L120.455 116.784L122.991 100.015L122.796 99.6783L122.577 99.565L109.2 92.6168L108.474 90.664C108.263 90.1014 107.895 89.6182 107.42 89.2763C106.944 88.9345 106.382 88.7498 105.806 88.7459L96.9946 88.7081C96.5373 88.7059 96.0862 88.8182 95.6785 89.0357C95.2709 89.2532 94.9185 89.5695 94.6507 89.9585L92.2648 93.4263L76.4816 104.047Z" fill="#124559"/>
<path d="M85.9803 125.253L83.9845 129.735L82.622 132.797L80.2781 145.676L79.1046 146.983L78.0992 142.356L67.5764 144.808C67.2313 142.795 67.484 144.876 67.271 142.668C67.331 142.605 67.394 142.542 67.457 142.479C67.6251 142.315 67.7661 142.161 67.7631 142.013C67.6431 134.397 68.0032 121.436 71.0104 113.584C71.4814 112.302 72.1024 111.086 72.8591 109.965C72.9192 109.88 72.9762 109.795 73.0332 109.71C74.4198 107.672 75.2961 105.666 76.5386 104.239V104.236C76.5463 104.229 76.5534 104.222 76.5596 104.214C76.5641 104.211 76.5682 104.208 76.5716 104.204L85.1069 99.4547L85.4731 110.252L85.7342 118.012L85.9803 125.253Z" fill="#124559"/>
<path d="M116.757 126.527L119.25 132.124L120.12 134.074L122.464 146.952L123.633 148.256L124.641 143.629L125.114 143.528L133.654 141.671L136.143 149.967C136.704 148.986 136.925 147.832 136.768 146.7C136.612 145.568 136.088 144.527 135.285 143.753C135.115 143.592 134.973 143.435 134.977 143.286C135.119 134.329 134.597 117.972 129.882 111.241C128.384 109.104 127.486 106.976 126.179 105.49C126.175 105.486 126.175 105.481 126.171 105.481L122.99 100.015L122.795 99.6794L122.577 99.5648L116.757 126.527Z" fill="#124559"/>
<path d="M101.655 86.0764C108.129 86.0764 113.377 80.5684 113.377 73.7739C113.377 66.9794 108.129 61.4714 101.655 61.4714C95.1807 61.4714 89.9323 66.9794 89.9323 73.7739C89.9323 80.5684 95.1807 86.0764 101.655 86.0764Z" fill="#FFB6B6"/>
<path d="M117.499 65.1807C117.408 65.0788 117.299 64.9972 117.177 64.9407C117.056 64.8843 116.925 64.8541 116.792 64.8521L116.968 64.3386C117.025 64.1768 117.041 64.0019 117.013 63.8318C116.985 63.6616 116.914 63.5024 116.808 63.3704C116.702 63.2383 116.565 63.1382 116.41 63.0803C116.255 63.0224 116.088 63.0088 115.926 63.0409L115.284 63.1707L115.345 62.7206C115.368 62.553 115.349 62.3819 115.29 62.2242C115.231 62.0666 115.134 61.9277 115.009 61.8212C114.883 61.7148 114.733 61.6445 114.574 61.6173C114.415 61.5901 114.252 61.6068 114.1 61.6659C113.963 61.7227 113.815 61.7465 113.667 61.7356C113.52 61.7246 113.376 61.6791 113.248 61.6024C113.119 61.5281 113.007 61.4251 112.919 61.3006C112.832 61.1762 112.772 61.0332 112.743 60.8818L112.519 59.7498L112.495 59.689C111.406 57.7839 109.312 56.3979 106.75 55.8899C104.469 55.4343 102.13 55.6663 99.8753 55.8844C98.9808 55.9727 97.9706 56.0721 97.1287 56.6133C96.4131 57.0771 95.808 58.0048 95.9317 58.9408C93.7086 58.2257 91.3251 59.6531 90.1438 61.4533C88.7442 63.5958 88.5153 66.2795 88.4785 68.3779C88.3785 73.3421 89.3546 77.4036 91.3724 80.4517C91.5198 80.6726 91.5566 81.1337 91.8486 81.2883L91.7881 81.1861C92.1143 81.3573 92.4458 81.6334 92.3222 81.9288C91.967 82.7792 94.3269 84.6595 95.9896 85.2807C99.0229 86.4154 103.056 86.3188 105.892 85.9102L105.992 85.2061C107.015 85.0598 107.736 84.7809 107.939 84.3447C108.297 84.0244 108.602 83.7373 108.868 83.4722L108.87 83.4695C108.875 83.4639 108.886 83.4557 108.891 83.4501C110.172 82.1608 110.47 81.4263 110.604 80.3081C110.733 79.212 110.504 78.0993 110.27 77.0971C115.2 77.8978 108.328 71.5862 112.922 70.3658C112.974 70.3488 113.028 70.3349 113.082 70.3244C113.216 70.2913 113.35 70.2581 113.479 70.2195C114.101 70.0425 114.696 69.7758 115.247 69.4271C116.531 68.6071 116.955 67.5192 117.618 66.2933C117.713 66.1188 117.753 65.9168 117.732 65.7166C117.711 65.5165 117.629 65.3288 117.499 65.1807Z" fill="#2F2E41"/>
<path d="M143.116 127.402C143.113 127.886 143.108 128.562 143.087 129.399C143.084 129.515 143.082 129.633 143.079 129.755C143.045 131.293 143.011 132.582 142.955 134.015C142.953 134.114 142.95 134.211 142.945 134.31C142.871 136.309 142.755 138.637 142.555 142.323C142.185 149.131 141.537 143.259 140.888 145.647C140.856 145.766 140.822 145.907 140.79 146.072C140.692 146.673 140.526 147.26 140.296 147.82C139.951 148.035 139.596 148.242 139.246 148.449C138.249 149.032 137.236 149.592 136.215 150.125C135.642 150.424 135.065 150.716 134.487 150.998C134.395 151.042 134.305 151.086 134.216 151.128C131.252 152.566 128.197 153.79 125.074 154.789C124.463 154.982 123.855 155.17 123.24 155.344C122.598 155.531 121.956 155.708 121.306 155.874C116.472 157.119 111.525 157.822 106.55 157.969C105.879 157.991 105.203 158 104.524 158C104.187 158 103.856 157.997 103.519 157.994C103.416 157.994 103.314 157.991 103.211 157.989C102.914 157.98 102.606 157.975 102.296 157.967C96.2918 157.77 90.3369 156.765 84.577 154.976L84.3323 154.902C83.9535 154.78 83.5772 154.662 83.201 154.535C81.4647 153.958 79.7537 153.312 78.0683 152.596C76.7818 152.053 75.5102 151.469 74.2535 150.846C74.2421 150.843 74.2313 150.837 74.222 150.829C73.9589 150.702 73.6932 150.57 73.4301 150.435C73.3959 150.415 73.359 150.396 73.3222 150.377C72.3409 149.874 71.3701 149.348 70.4099 148.797C69.6022 146.851 68.4657 146.478 67.7606 144.766C67.5554 144.258 67.4071 143.726 67.3186 143.181C67.3186 143.176 67.316 143.17 67.316 143.162C67.3897 144.189 67.0029 141.34 67.3134 143.151C67.3107 143.118 67.3081 143.082 67.3055 143.041C67.2976 142.941 67.2871 142.82 67.2713 142.668C66.3689 133.421 66.4268 122.847 66.0348 114.133C66.0085 113.57 65.9813 113.03 65.9532 112.515C65.9453 112.344 65.9348 112.176 65.9243 112.01C65.9427 111.96 65.9637 111.908 65.9874 111.858C65.9925 111.844 65.9986 111.83 66.0058 111.817C66.0136 111.799 66.0224 111.783 66.0322 111.767C66.0374 111.759 66.0453 111.748 66.0506 111.739C66.0544 111.73 66.0588 111.721 66.0637 111.712C66.0874 111.673 66.1137 111.632 66.1426 111.593C66.1558 111.576 66.1663 111.563 66.1795 111.549C66.1886 111.535 66.1992 111.522 66.211 111.51C66.2191 111.497 66.2289 111.485 66.24 111.474C66.2505 111.463 66.261 111.449 66.2742 111.436C66.2798 111.427 66.287 111.419 66.2952 111.413C66.316 111.388 66.3389 111.365 66.3636 111.344C66.4575 111.254 66.5578 111.171 66.6636 111.096C66.7004 111.071 66.7398 111.046 66.7767 111.019C67.0418 110.852 67.321 110.712 67.6107 110.599C67.7106 110.56 67.8106 110.524 67.9185 110.486C67.9579 110.475 67.9948 110.461 68.0342 110.447C68.0921 110.428 68.15 110.408 68.2105 110.395C68.5104 110.301 68.834 110.221 69.1839 110.146C69.226 110.138 69.2707 110.13 69.3154 110.119C69.3786 110.105 69.4444 110.094 69.5101 110.083C69.5996 110.066 69.6916 110.05 69.7837 110.033C70.5651 109.903 71.4517 109.807 72.4304 109.743C72.5224 109.738 72.6145 109.732 72.7066 109.727C72.8145 109.721 72.9223 109.715 73.0328 109.71C73.1249 109.704 73.2196 109.702 73.3143 109.699C73.4064 109.693 73.5011 109.691 73.5985 109.688C73.8642 109.68 74.1378 109.671 74.4166 109.666C75.2112 109.649 76.0478 109.655 76.9265 109.674C77.3343 109.685 77.7499 109.696 78.1761 109.715C78.2051 109.715 78.2314 109.718 78.2577 109.718C78.6286 109.732 79.0022 109.749 79.3863 109.771C79.6547 109.785 79.9256 109.798 80.1966 109.815C80.4518 109.831 80.7096 109.848 80.9701 109.867C81.1726 109.878 81.3752 109.895 81.5804 109.909C81.754 109.923 81.9277 109.936 82.1013 109.947L82.3381 109.964C82.467 109.975 82.5959 109.983 82.7275 109.997C83.0169 110.022 83.3063 110.047 83.6009 110.072C83.8929 110.099 84.1902 110.127 84.4875 110.154C84.7848 110.182 85.0847 110.212 85.3846 110.243C85.4162 110.246 85.4451 110.248 85.4741 110.251C85.7477 110.281 86.0213 110.309 86.2975 110.339C86.3607 110.345 86.4264 110.351 86.4896 110.359C86.7529 110.387 87.0215 110.419 87.2872 110.449C87.3688 110.458 87.45 110.467 87.5318 110.476C87.74 110.5 87.9452 110.521 88.1549 110.547C88.4311 110.58 88.7126 110.61 88.9862 110.649C89.1993 110.674 89.4124 110.698 89.6255 110.726C89.9596 110.767 90.299 110.812 90.6384 110.859C90.7673 110.875 90.8962 110.892 91.0251 110.911C91.9933 111.038 92.972 111.179 93.9664 111.325C95.4739 111.549 97.005 111.792 98.5467 112.054C100.091 112.316 101.644 112.593 103.206 112.885C103.601 112.96 103.995 113.034 104.392 113.111C104.571 113.147 104.75 113.183 104.929 113.219C105.234 113.277 105.539 113.338 105.845 113.399C106.15 113.459 106.455 113.52 106.76 113.584C107.123 113.658 107.489 113.733 107.852 113.807C110.243 114.304 112.622 114.834 114.942 115.389C115.324 115.48 115.705 115.574 116.084 115.665C116.842 115.85 117.592 116.038 118.336 116.229C118.541 116.278 118.744 116.331 118.946 116.383C119.451 116.516 119.957 116.648 120.454 116.784L120.541 116.808C120.906 116.902 121.264 116.999 121.622 117.098C122.466 117.33 123.297 117.565 124.113 117.802C124.655 117.96 125.191 118.119 125.721 118.28C126.513 118.52 127.289 118.763 128.044 119.009C128.231 119.07 128.417 119.13 128.601 119.188C129.154 119.368 129.699 119.55 130.227 119.732C130.648 119.876 131.059 120.022 131.464 120.169C131.869 120.315 132.266 120.461 132.656 120.608C132.906 120.701 133.153 120.801 133.4 120.895C133.755 121.033 134.105 121.171 134.447 121.309C134.552 121.35 134.655 121.394 134.758 121.436C134.823 121.466 134.887 121.491 134.95 121.519C135.073 121.571 135.2 121.621 135.321 121.673C135.444 121.723 135.565 121.775 135.686 121.831C135.805 121.88 135.926 121.933 136.041 121.985C136.16 122.035 136.276 122.087 136.391 122.143C136.489 122.184 136.583 122.228 136.676 122.272C136.862 122.358 137.049 122.444 137.231 122.532C137.32 122.576 137.41 122.618 137.499 122.662L137.704 122.761C137.733 122.778 137.762 122.792 137.791 122.805C137.857 122.838 137.925 122.874 137.991 122.907C138.144 122.982 138.293 123.062 138.441 123.137C138.638 123.242 138.83 123.346 139.014 123.449C139.201 123.554 139.383 123.658 139.556 123.761C139.585 123.777 139.612 123.794 139.64 123.81C139.68 123.832 139.719 123.857 139.759 123.879C139.893 123.959 140.022 124.042 140.151 124.122C140.403 124.285 140.643 124.445 140.866 124.605C140.916 124.641 140.964 124.677 141.014 124.71C141.18 124.835 141.337 124.956 141.485 125.08C141.485 125.083 141.485 125.083 141.487 125.083C141.537 125.122 141.585 125.163 141.632 125.202C141.671 125.241 141.714 125.274 141.753 125.312C141.89 125.437 142.016 125.555 142.132 125.677C142.171 125.714 142.208 125.754 142.242 125.795C142.258 125.809 142.272 125.824 142.284 125.84C142.337 125.895 142.384 125.95 142.429 126.005C142.436 126.013 142.442 126.021 142.448 126.03C142.511 126.107 142.569 126.185 142.624 126.262C142.65 126.301 142.679 126.339 142.703 126.378C142.734 126.425 142.766 126.475 142.792 126.522C142.816 126.56 142.837 126.602 142.858 126.64C142.914 126.74 142.961 126.844 143 126.952C143.03 127.026 143.053 127.101 143.071 127.179C143.091 127.252 143.106 127.327 143.116 127.402Z" fill="#124559"/>
<path opacity="0.2" d="M143.116 127.402C143.113 127.886 143.108 128.562 143.087 129.399C143.084 129.515 143.079 129.633 143.076 129.755C143.05 130.928 143.011 132.378 142.955 134.015C142.953 134.114 142.95 134.211 142.945 134.31C142.871 136.309 142.755 138.637 142.555 142.323C142.185 149.131 141.537 143.259 140.888 145.647C139.083 144.482 137.104 143.262 134.989 142.008C134.608 141.782 134.223 141.554 133.834 141.326C129.604 138.849 124.879 136.254 119.946 133.684C119.751 133.581 119.554 133.479 119.359 133.38C108.06 127.518 95.7265 121.817 85.7345 118.012C83.8061 117.278 81.9645 116.615 80.2334 116.033C76.5871 114.809 73.4353 113.954 71.0097 113.584C68.4841 113.197 66.7398 113.335 66.0348 114.133C66.0084 113.57 65.9813 113.03 65.9532 112.515C65.9427 112.344 65.9321 112.175 65.9216 112.01C65.9379 111.964 65.959 111.921 65.9794 111.877C65.9823 111.871 65.9844 111.864 65.9874 111.858C65.9924 111.844 65.9986 111.83 66.0058 111.817C66.0136 111.799 66.0224 111.783 66.0321 111.767C66.0407 111.747 66.0513 111.729 66.0637 111.712C66.0874 111.673 66.1137 111.632 66.1426 111.593C66.1639 111.564 66.1867 111.536 66.211 111.51C66.2191 111.497 66.2288 111.485 66.24 111.474C66.2505 111.463 66.261 111.449 66.2742 111.436C66.2798 111.427 66.2869 111.419 66.2952 111.413C66.316 111.388 66.3389 111.365 66.3636 111.344C66.4575 111.254 66.5577 111.171 66.6635 111.096C66.7003 111.071 66.7398 111.046 66.7767 111.019C67.0418 110.852 67.321 110.712 67.6106 110.599C67.7106 110.56 67.8106 110.524 67.9184 110.486C67.9579 110.475 67.9947 110.461 68.0342 110.447C68.0921 110.428 68.15 110.408 68.2105 110.395C68.5104 110.301 68.834 110.221 69.1839 110.146C69.2891 110.124 69.3996 110.102 69.5101 110.083C69.5996 110.066 69.6916 110.05 69.7837 110.033C70.5651 109.903 71.4517 109.807 72.4303 109.743C72.5224 109.738 72.6145 109.732 72.7066 109.726C72.8144 109.721 72.9223 109.715 73.0328 109.71C73.1249 109.704 73.2196 109.702 73.3143 109.699C73.4064 109.693 73.5011 109.691 73.5984 109.688C73.8642 109.68 74.1378 109.671 74.4166 109.666C75.2111 109.652 76.0478 109.657 76.9265 109.677C77.3342 109.685 77.7499 109.699 78.1761 109.718C78.2024 109.718 78.2314 109.721 78.2577 109.721C78.6286 109.732 79.0048 109.751 79.3863 109.771C79.6546 109.784 79.9256 109.798 80.1966 109.815C80.4518 109.831 80.7096 109.848 80.9701 109.867C81.1726 109.878 81.3752 109.895 81.5804 109.909C81.754 109.923 81.9277 109.936 82.1013 109.947C82.3091 109.964 82.517 109.981 82.7275 109.997C83.0168 110.022 83.3062 110.047 83.6009 110.072C83.8929 110.099 84.1902 110.127 84.4875 110.154C84.7848 110.182 85.0847 110.212 85.3846 110.243C85.4162 110.246 85.4451 110.248 85.4741 110.251C85.7477 110.281 86.0213 110.309 86.2975 110.339C87.8287 110.502 89.4045 110.693 91.0251 110.911C91.9933 111.041 92.9737 111.18 93.9664 111.328C95.4739 111.551 97.005 111.794 98.5467 112.054C100.091 112.316 101.644 112.593 103.206 112.885C103.601 112.96 103.995 113.034 104.392 113.111C104.877 113.205 105.361 113.301 105.845 113.399C106.15 113.459 106.455 113.52 106.76 113.584C107.123 113.658 107.489 113.733 107.852 113.807C110.243 114.304 112.622 114.834 114.942 115.389C115.324 115.48 115.705 115.574 116.084 115.665C116.842 115.85 117.592 116.038 118.336 116.229C118.541 116.281 118.744 116.334 118.946 116.386C119.454 116.519 119.957 116.651 120.454 116.784V116.786C120.483 116.792 120.512 116.8 120.541 116.808C120.904 116.905 121.264 117.002 121.622 117.101C122.466 117.333 123.297 117.567 124.113 117.802C124.655 117.963 125.192 118.12 125.721 118.28C126.513 118.523 127.289 118.766 128.044 119.009C128.231 119.07 128.417 119.13 128.601 119.188C129.154 119.371 129.696 119.552 130.227 119.732C130.648 119.876 131.059 120.022 131.464 120.169C131.869 120.315 132.266 120.461 132.656 120.608C132.908 120.701 133.155 120.798 133.4 120.892C133.758 121.03 134.105 121.168 134.447 121.309C134.552 121.35 134.655 121.394 134.758 121.436C134.95 121.513 135.136 121.593 135.321 121.673C135.444 121.723 135.565 121.775 135.686 121.831C135.805 121.88 135.926 121.933 136.041 121.985C136.16 122.035 136.276 122.087 136.391 122.143C136.489 122.184 136.583 122.228 136.676 122.272C136.862 122.358 137.049 122.444 137.231 122.532C137.32 122.576 137.41 122.618 137.499 122.662L137.704 122.761C137.733 122.778 137.762 122.792 137.791 122.805C138.015 122.916 138.23 123.026 138.441 123.137C138.638 123.242 138.83 123.346 139.014 123.449C139.233 123.57 139.441 123.689 139.64 123.81C139.68 123.832 139.719 123.857 139.759 123.879C139.893 123.959 140.022 124.042 140.151 124.122C140.403 124.285 140.643 124.445 140.866 124.605C141.087 124.766 141.293 124.923 141.485 125.08C141.485 125.083 141.485 125.083 141.487 125.083C141.579 125.16 141.669 125.238 141.753 125.312C141.89 125.437 142.016 125.555 142.132 125.677C142.171 125.714 142.208 125.754 142.242 125.795C142.258 125.809 142.272 125.824 142.284 125.84C142.34 125.903 142.395 125.967 142.448 126.03C142.511 126.107 142.569 126.185 142.624 126.262C142.65 126.301 142.679 126.339 142.703 126.378C142.734 126.425 142.766 126.475 142.792 126.522C142.816 126.56 142.837 126.602 142.858 126.64C142.914 126.74 142.961 126.844 143 126.952C143.029 127.026 143.053 127.102 143.071 127.179C143.091 127.252 143.106 127.327 143.116 127.402Z" fill="black"/>
</g>
<defs>
<clipPath id="clip0_5_32">
<rect width="207" height="158" fill="white"/>
</clipPath>
</defs>
</svg>
